# xmcd CD database file
#
# Track frame offsets:
#	150
#	5503
#	10223
#	15614
#	20909
#	27918
#	37489
#	44386
#	50798
#	58298
#	65522
#	72431
#	81543
#	88285
#	93387
#	100978
#	108346
#	115682
#	125054
#	132526
#	139611
#	147537
#	157067
#	165232
#	188377
#	195175
#	201668
#	207269
#	213946
#	221369
#
# Disc length: 3078 seconds
#
# Revision: 0
# Processed by: cddbd v1.5.2PL0 Copyright (c) Steve Scherf et al.
# Submitted via: CDex 1.70beta2
#
DISCID=ca0c041e
DTITLE=渡辺　かおり - ダリオとあそぼう！　えいご＆にほんご　ことばあそび
DYEAR=1900
DGENRE=児童向け（童謡）
TTITLE0=メリーさんのひつじ
TTITLE1=ちょうちょう
TTITLE2=おつかいありさん
TTITLE3=おうま
TTITLE4=かえるのがっしょう
TTITLE5=いぬのおまわりさん
TTITLE6=かたつむり
TTITLE7=ぶんぶんぶん
TTITLE8=うさぎとかめ
TTITLE9=やぎさんゆうびん
TTITLE10=ぞうさん
TTITLE11=カラスのあかちゃん
TTITLE12=あめふりくまのこ
TTITLE13=あめふり
TTITLE14=はるがきた
TTITLE15=うみ
TTITLE16=トマト
TTITLE17=キラキラぼし
TTITLE18=ゆき
TTITLE19=いちねんせいになったら
TTITLE20=あかいくつ
TTITLE21=おもちゃのチャチャチャ
TTITLE22=チューリップ
TTITLE23=すうじのうた
TTITLE24=おはなしゆびさん
TTITLE25=おおきなたいこ
TTITLE26=アイアイ
TTITLE27=むすんでひらいて
TTITLE28=おおきなくりのきのしたで
TTITLE29=しあわせならてをたたこう
EXTD=
EXTT0=
EXTT1=
EXTT2=
EXTT3=
EXTT4=
EXTT5=
EXTT6=
EXTT7=
EXTT8=
EXTT9=
EXTT10=
EXTT11=
EXTT12=
EXTT13=
EXTT14=
EXTT15=
EXTT16=
EXTT17=
EXTT18=
EXTT19=
EXTT20=
EXTT21=
EXTT22=
EXTT23=
EXTT24=
EXTT25=
EXTT26=
EXTT27=
EXTT28=
EXTT29=
PLAYORDER=
